<?xml version="1.0" encoding="UTF-8" standalone="no"?>
<svg width="600" height="600" xmlns="http://www.w3.org/2000/svg">
  <style>
    text { font-family: Arial, sans-serif; }
    .array-box { fill: #f0f0f0; stroke: #333; stroke-width: 1; }
    .window-box { fill: #a8d5ff; stroke: #333; stroke-width: 1; }
    .step-box { fill: #f9f9f9; stroke: #333; stroke-width: 1; rx: 5; ry: 5; }
    .code-box { fill: #f5f5f5; stroke: #333; stroke-width: 1; rx: 5; ry: 5; }
    .aux-box { fill: #ffecb3; stroke: #333; stroke-width: 1; rx: 5; ry: 5; }
    .arrow { stroke: #333; stroke-width: 1.5; marker-end: url(#arrowhead); }
    .label { font-size: 12px; }
    .code { font-size: 10px; font-family: monospace; }
    .title { font-size: 16px; font-weight: bold; }
    .step-title { font-size: 14px; font-weight: bold; }
  </style>
  
  <defs>
    <marker id="arrowhead" markerWidth="10" markerHeight="7" refX="9" refY="3.5" orient="auto">
      <polygon points="0 0, 10 3.5, 0 7" fill="#333" />
    </marker>
  </defs>
  
  <!-- Title -->
  <text x="300" y="25" text-anchor="middle" class="title">Window with Auxiliary Data Structure: Step-by-Step</text>
  
  <!-- Step 1: Initial Window -->
  <rect x="50" y="50" width="500" height="120" class="step-box" />
  <text x="60" y="70" class="step-title">Step 1: Add First Character (K=2 Distinct Characters)</text>
  
  <rect x="100" y="80" width="40" height="40" class="window-box" />
  <rect x="140" y="80" width="40" height="40" class="array-box" />
  <rect x="180" y="80" width="40" height="40" class="array-box" />
  <rect x="220" y="80" width="40" height="40" class="array-box" />
  <rect x="260" y="80" width="40" height="40" class="array-box" />
  <rect x="300" y="80" width="40" height="40" class="array-box" />
  
  <text x="120" y="105" text-anchor="middle">A</text>
  <text x="160" y="105" text-anchor="middle">B</text>
  <text x="200" y="105" text-anchor="middle">A</text>
  <text x="240" y="105" text-anchor="middle">C</text>
  <text x="280" y="105" text-anchor="middle">B</text>
  <text x="320" y="105" text-anchor="middle">A</text>
  
  <!-- Auxiliary Data Structure -->
  <rect x="380" y="80" width="150" height="60" class="aux-box" />
  <text x="385" y="95" class="label">HashMap:</text>
  <text x="385" y="115" class="label">A: 1</text>
  <text x="385" y="135" class="label">Distinct chars: 1</text>
  
  <!-- Step 2: Expand Window -->
  <rect x="50" y="190" width="500" height="120" class="step-box" />
  <text x="60" y="210" class="step-title">Step 2: Expand Window (Add Next Character)</text>
  
  <rect x="100" y="220" width="40" height="40" class="window-box" />
  <rect x="140" y="220" width="40" height="40" class="window-box" />
  <rect x="180" y="220" width="40" height="40" class="array-box" />
  <rect x="220" y="220" width="40" height="40" class="array-box" />
  <rect x="260" y="220" width="40" height="40" class="array-box" />
  <rect x="300" y="220" width="40" height="40" class="array-box" />
  
  <text x="120" y="245" text-anchor="middle">A</text>
  <text x="160" y="245" text-anchor="middle">B</text>
  <text x="200" y="245" text-anchor="middle">A</text>
  <text x="240" y="245" text-anchor="middle">C</text>
  <text x="280" y="245" text-anchor="middle">B</text>
  <text x="320" y="245" text-anchor="middle">A</text>
  
  <!-- Auxiliary Data Structure -->
  <rect x="380" y="220" width="150" height="60" class="aux-box" />
  <text x="385" y="235" class="label">HashMap:</text>
  <text x="385" y="255" class="label">A: 1, B: 1</text>
  <text x="385" y="275" class="label">Distinct chars: 2</text>
  
  <!-- Step 3: Expand Window Again -->
  <rect x="50" y="330" width="500" height="120" class="step-box" />
  <text x="60" y="350" class="step-title">Step 3: Expand Window (Add Next Character)</text>
  
  <rect x="100" y="360" width="40" height="40" class="window-box" />
  <rect x="140" y="360" width="40" height="40" class="window-box" />
  <rect x="180" y="360" width="40" height="40" class="window-box" />
  <rect x="220" y="360" width="40" height="40" class="array-box" />
  <rect x="260" y="360" width="40" height="40" class="array-box" />
  <rect x="300" y="360" width="40" height="40" class="array-box" />
  
  <text x="120" y="385" text-anchor="middle">A</text>
  <text x="160" y="385" text-anchor="middle">B</text>
  <text x="200" y="385" text-anchor="middle">A</text>
  <text x="240" y="385" text-anchor="middle">C</text>
  <text x="280" y="385" text-anchor="middle">B</text>
  <text x="320" y="385" text-anchor="middle">A</text>
  
  <!-- Auxiliary Data Structure -->
  <rect x="380" y="360" width="150" height="60" class="aux-box" />
  <text x="385" y="375" class="label">HashMap:</text>
  <text x="385" y="395" class="label">A: 2, B: 1</text>
  <text x="385" y="415" class="label">Distinct chars: 2</text>
  
  <!-- Step 4: Expand and Shrink -->
  <rect x="50" y="470" width="500" height="120" class="step-box" />
  <text x="60" y="490" class="step-title">Step 4: Expand and Shrink (Exceed K Distinct)</text>
  
  <rect x="100" y="500" width="40" height="40" class="array-box" />
  <rect x="140" y="500" width="40" height="40" class="window-box" />
  <rect x="180" y="500" width="40" height="40" class="window-box" />
  <rect x="220" y="500" width="40" height="40" class="window-box" />
  <rect x="260" y="500" width="40" height="40" class="array-box" />
  <rect x="300" y="500" width="40" height="40" class="array-box" />
  
  <text x="120" y="525" text-anchor="middle">A</text>
  <text x="160" y="525" text-anchor="middle">B</text>
  <text x="200" y="525" text-anchor="middle">A</text>
  <text x="240" y="525" text-anchor="middle">C</text>
  <text x="280" y="525" text-anchor="middle">B</text>
  <text x="320" y="525" text-anchor="middle">A</text>
  
  <!-- Auxiliary Data Structure -->
  <rect x="380" y="500" width="150" height="80" class="aux-box" />
  <text x="385" y="515" class="label">HashMap:</text>
  <text x="385" y="535" class="label">A: 1, B: 1, C: 1</text>
  <text x="385" y="555" class="label">Distinct chars: 3 > K</text>
  <text x="385" y="575" class="label">After shrink: A: 0, B: 1, C: 1</text>
</svg>
