<?xml version="1.0" encoding="UTF-8" standalone="no"?>
<svg width="600" height="500" xmlns="http://www.w3.org/2000/svg">
  <style>
    text { font-family: Arial, sans-serif; }
    .array-box { fill: #f0f0f0; stroke: #333; stroke-width: 1; }
    .window-box { fill: #a8d5ff; stroke: #333; stroke-width: 1; }
    .step-box { fill: #f9f9f9; stroke: #333; stroke-width: 1; rx: 5; ry: 5; }
    .code-box { fill: #f5f5f5; stroke: #333; stroke-width: 1; rx: 5; ry: 5; }
    .arrow { stroke: #333; stroke-width: 1.5; marker-end: url(#arrowhead); }
    .label { font-size: 12px; }
    .code { font-size: 10px; font-family: monospace; }
    .title { font-size: 16px; font-weight: bold; }
    .step-title { font-size: 14px; font-weight: bold; }
  </style>
  
  <defs>
    <marker id="arrowhead" markerWidth="10" markerHeight="7" refX="9" refY="3.5" orient="auto">
      <polygon points="0 0, 10 3.5, 0 7" fill="#333" />
    </marker>
  </defs>
  
  <!-- Title -->
  <text x="300" y="25" text-anchor="middle" class="title">Fixed Size Window: Step-by-Step Visualization</text>
  
  <!-- Step 1: Initial Window -->
  <rect x="50" y="50" width="500" height="100" class="step-box" />
  <text x="60" y="70" class="step-title">Step 1: Initialize Window (Size K=3)</text>
  
  <rect x="100" y="80" width="40" height="40" class="window-box" />
  <rect x="140" y="80" width="40" height="40" class="window-box" />
  <rect x="180" y="80" width="40" height="40" class="window-box" />
  <rect x="220" y="80" width="40" height="40" class="array-box" />
  <rect x="260" y="80" width="40" height="40" class="array-box" />
  <rect x="300" y="80" width="40" height="40" class="array-box" />
  <rect x="340" y="80" width="40" height="40" class="array-box" />
  
  <text x="120" y="105" text-anchor="middle">2</text>
  <text x="160" y="105" text-anchor="middle">4</text>
  <text x="200" y="105" text-anchor="middle">1</text>
  <text x="240" y="105" text-anchor="middle">7</text>
  <text x="280" y="105" text-anchor="middle">8</text>
  <text x="320" y="105" text-anchor="middle">3</text>
  <text x="360" y="105" text-anchor="middle">5</text>
  
  <text x="400" y="90" class="label">window_sum = 2+4+1 = 7</text>
  <text x="400" y="110" class="label">result = 7</text>
  
  <!-- Step 2: Slide Window -->
  <rect x="50" y="170" width="500" height="100" class="step-box" />
  <text x="60" y="190" class="step-title">Step 2: Slide Window Right</text>
  
  <rect x="100" y="200" width="40" height="40" class="array-box" />
  <rect x="140" y="200" width="40" height="40" class="window-box" />
  <rect x="180" y="200" width="40" height="40" class="window-box" />
  <rect x="220" y="200" width="40" height="40" class="window-box" />
  <rect x="260" y="200" width="40" height="40" class="array-box" />
  <rect x="300" y="200" width="40" height="40" class="array-box" />
  <rect x="340" y="200" width="40" height="40" class="array-box" />
  
  <text x="120" y="225" text-anchor="middle">2</text>
  <text x="160" y="225" text-anchor="middle">4</text>
  <text x="200" y="225" text-anchor="middle">1</text>
  <text x="240" y="225" text-anchor="middle">7</text>
  <text x="280" y="225" text-anchor="middle">8</text>
  <text x="320" y="225" text-anchor="middle">3</text>
  <text x="360" y="225" text-anchor="middle">5</text>
  
  <path d="M 120 150 L 120 170" class="arrow" />
  <path d="M 240 150 L 240 170" class="arrow" />
  
  <text x="400" y="210" class="label">window_sum = 7 + 7 - 2 = 12</text>
  <text x="400" y="230" class="label">result = max(7, 12) = 12</text>
  
  <!-- Step 3: Slide Window Again -->
  <rect x="50" y="290" width="500" height="100" class="step-box" />
  <text x="60" y="310" class="step-title">Step 3: Slide Window Right Again</text>
  
  <rect x="100" y="320" width="40" height="40" class="array-box" />
  <rect x="140" y="320" width="40" height="40" class="array-box" />
  <rect x="180" y="320" width="40" height="40" class="window-box" />
  <rect x="220" y="320" width="40" height="40" class="window-box" />
  <rect x="260" y="320" width="40" height="40" class="window-box" />
  <rect x="300" y="320" width="40" height="40" class="array-box" />
  <rect x="340" y="320" width="40" height="40" class="array-box" />
  
  <text x="120" y="345" text-anchor="middle">2</text>
  <text x="160" y="345" text-anchor="middle">4</text>
  <text x="200" y="345" text-anchor="middle">1</text>
  <text x="240" y="345" text-anchor="middle">7</text>
  <text x="280" y="345" text-anchor="middle">8</text>
  <text x="320" y="345" text-anchor="middle">3</text>
  <text x="360" y="345" text-anchor="middle">5</text>
  
  <path d="M 160 270 L 160 290" class="arrow" />
  <path d="M 280 270 L 280 290" class="arrow" />
  
  <text x="400" y="330" class="label">window_sum = 12 + 8 - 4 = 16</text>
  <text x="400" y="350" class="label">result = max(12, 16) = 16</text>
  
  <!-- Code Box -->
  <rect x="50" y="410" width="500" height="80" class="code-box" />
  <text x="60" y="425" class="code">def fixed_sliding_window(arr, k):</text>
  <text x="60" y="440" class="code">    window_sum = sum(arr[:k])    # Initial window sum</text>
  <text x="60" y="455" class="code">    result = window_sum</text>
  <text x="60" y="470" class="code">    for i in range(k, len(arr)):</text>
  <text x="60" y="485" class="code">        window_sum = window_sum + arr[i] - arr[i-k]  # Add new, remove old</text>
</svg>
