<?xml version="1.0" encoding="UTF-8" standalone="no"?>
<svg width="600" height="200" xmlns="http://www.w3.org/2000/svg">
  <style>
    text { font-family: Arial, sans-serif; }
    .array-box { fill: #f0f0f0; stroke: #333; stroke-width: 1; }
    .window-box { fill: #a8d5ff; stroke: #333; stroke-width: 1; }
    .arrow { stroke: #333; stroke-width: 1.5; marker-end: url(#arrowhead); }
    .label { font-size: 12px; }
    .title { font-size: 16px; font-weight: bold; }
  </style>
  
  <defs>
    <marker id="arrowhead" markerWidth="10" markerHeight="7" refX="9" refY="3.5" orient="auto">
      <polygon points="0 0, 10 3.5, 0 7" fill="#333" />
    </marker>
  </defs>
  
  <!-- Title -->
  <text x="300" y="25" text-anchor="middle" class="title">Fixed Size Window Expansion and Contraction</text>
  
  <!-- Array elements -->
  <rect x="50" y="50" width="40" height="40" class="array-box" />
  <rect x="90" y="50" width="40" height="40" class="array-box" />
  <rect x="130" y="50" width="40" height="40" class="window-box" />
  <rect x="170" y="50" width="40" height="40" class="window-box" />
  <rect x="210" y="50" width="40" height="40" class="window-box" />
  <rect x="250" y="50" width="40" height="40" class="array-box" />
  <rect x="290" y="50" width="40" height="40" class="array-box" />
  
  <!-- Array values -->
  <text x="70" y="75" text-anchor="middle">1</text>
  <text x="110" y="75" text-anchor="middle">2</text>
  <text x="150" y="75" text-anchor="middle">3</text>
  <text x="190" y="75" text-anchor="middle">4</text>
  <text x="230" y="75" text-anchor="middle">5</text>
  <text x="270" y="75" text-anchor="middle">6</text>
  
  <!-- Window indicator -->
  <path d="M 130 100 L 130 90 L 250 90 L 250 100" fill="none" stroke="#333" stroke-width="1.5" />
  <text x="190" y="115" text-anchor="middle" class="label">Current Window</text>
  
  <!-- Expansion/Contraction Arrows -->
  <path d="M 170 130 L 170 160" class="arrow" />
  <path d="M 210 130 L 210 160" class="arrow" />
  <text x="190" y="175" text-anchor="middle" class="label">Window Slides Right</text>
</svg>
