<?xml version="1.0" encoding="UTF-8" standalone="no"?>
<svg width="600" height="200" xmlns="http://www.w3.org/2000/svg">
  <style>
    text { font-family: Arial, sans-serif; }
    .array-box { fill: #f0f0f0; stroke: #333; stroke-width: 1; }
    .window-box { fill: #a8d5ff; stroke: #333; stroke-width: 1; }
    .pointer { fill: #ff6b6b; stroke: #333; stroke-width: 1; }
    .arrow { stroke: #333; stroke-width: 1.5; marker-end: url(#arrowhead); }
    .label { font-size: 12px; }
    .title { font-size: 16px; font-weight: bold; }
  </style>
  
  <defs>
    <marker id="arrowhead" markerWidth="10" markerHeight="7" refX="9" refY="3.5" orient="auto">
      <polygon points="0 0, 10 3.5, 0 7" fill="#333" />
    </marker>
  </defs>
  
  <!-- Title -->
  <text x="300" y="25" text-anchor="middle" class="title">Multi-pointer Sliding Window</text>
  
  <!-- Array elements -->
  <rect x="50" y="50" width="40" height="40" class="array-box" />
  <rect x="90" y="50" width="40" height="40" class="array-box" />
  <rect x="130" y="50" width="40" height="40" class="window-box" />
  <rect x="170" y="50" width="40" height="40" class="window-box" />
  <rect x="210" y="50" width="40" height="40" class="window-box" />
  <rect x="250" y="50" width="40" height="40" class="window-box" />
  <rect x="290" y="50" width="40" height="40" class="array-box" />
  <rect x="330" y="50" width="40" height="40" class="array-box" />
  <rect x="370" y="50" width="40" height="40" class="array-box" />
  <rect x="410" y="50" width="40" height="40" class="array-box" />
  
  <!-- Array values -->
  <text x="70" y="75" text-anchor="middle">A</text>
  <text x="110" y="75" text-anchor="middle">B</text>
  <text x="150" y="75" text-anchor="middle">A</text>
  <text x="190" y="75" text-anchor="middle">A</text>
  <text x="230" y="75" text-anchor="middle">B</text>
  <text x="270" y="75" text-anchor="middle">B</text>
  <text x="310" y="75" text-anchor="middle">C</text>
  <text x="350" y="75" text-anchor="middle">D</text>
  <text x="390" y="75" text-anchor="middle">E</text>
  <text x="430" y="75" text-anchor="middle">F</text>
  
  <!-- Window indicator -->
  <path d="M 130 100 L 130 90 L 290 90 L 290 100" fill="none" stroke="#333" stroke-width="1.5" />
  <text x="210" y="115" text-anchor="middle" class="label">Current Window</text>
  
  <!-- Multiple pointers -->
  <circle cx="150" cy="130" r="10" class="pointer" />
  <text x="150" y="130" text-anchor="middle" dominant-baseline="middle">1</text>
  <path d="M 150 130 L 150 90" class="arrow" />
  
  <circle cx="190" cy="130" r="10" class="pointer" />
  <text x="190" y="130" text-anchor="middle" dominant-baseline="middle">2</text>
  <path d="M 190 130 L 190 90" class="arrow" />
  
  <circle cx="230" cy="130" r="10" class="pointer" />
  <text x="230" y="130" text-anchor="middle" dominant-baseline="middle">3</text>
  <path d="M 230 130 L 230 90" class="arrow" />
  
  <circle cx="270" cy="130" r="10" class="pointer" />
  <text x="270" y="130" text-anchor="middle" dominant-baseline="middle">4</text>
  <path d="M 270 130 L 270 90" class="arrow" />
  
  <!-- Explanation -->
  <text x="350" y="140" text-anchor="start" class="label">Multiple pointers track</text>
  <text x="350" y="155" text-anchor="start" class="label">different elements or</text>
  <text x="350" y="170" text-anchor="start" class="label">conditions within window</text>
</svg>
