<?xml version="1.0" encoding="UTF-8" standalone="no"?>
<svg width="600" height="600" xmlns="http://www.w3.org/2000/svg">
  <style>
    text { font-family: Arial, sans-serif; }
    .array-box { fill: #f0f0f0; stroke: #333; stroke-width: 1; }
    .window-box { fill: #a8d5ff; stroke: #333; stroke-width: 1; }
    .pointer-box { fill: #ffb3b3; stroke: #333; stroke-width: 1; }
    .step-box { fill: #f9f9f9; stroke: #333; stroke-width: 1; rx: 5; ry: 5; }
    .code-box { fill: #f5f5f5; stroke: #333; stroke-width: 1; rx: 5; ry: 5; }
    .arrow { stroke: #333; stroke-width: 1.5; marker-end: url(#arrowhead); }
    .pointer { stroke: #ff5555; stroke-width: 2; marker-end: url(#pointerhead); }
    .label { font-size: 12px; }
    .code { font-size: 10px; font-family: monospace; }
    .title { font-size: 16px; font-weight: bold; }
    .step-title { font-size: 14px; font-weight: bold; }
  </style>
  
  <defs>
    <marker id="arrowhead" markerWidth="10" markerHeight="7" refX="9" refY="3.5" orient="auto">
      <polygon points="0 0, 10 3.5, 0 7" fill="#333" />
    </marker>
    <marker id="pointerhead" markerWidth="10" markerHeight="7" refX="9" refY="3.5" orient="auto">
      <polygon points="0 0, 10 3.5, 0 7" fill="#ff5555" />
    </marker>
  </defs>
  
  <!-- Title -->
  <text x="300" y="25" text-anchor="middle" class="title">Multi-Pointer Window: Step-by-Step Visualization</text>
  
  <!-- Step 1: Initial Window -->
  <rect x="50" y="50" width="500" height="100" class="step-box" />
  <text x="60" y="70" class="step-title">Step 1: Initialize Window (K=2 Replacements)</text>
  
  <rect x="100" y="80" width="40" height="40" class="window-box" />
  <rect x="140" y="80" width="40" height="40" class="array-box" />
  <rect x="180" y="80" width="40" height="40" class="array-box" />
  <rect x="220" y="80" width="40" height="40" class="array-box" />
  <rect x="260" y="80" width="40" height="40" class="array-box" />
  <rect x="300" y="80" width="40" height="40" class="array-box" />
  
  <text x="120" y="105" text-anchor="middle">A</text>
  <text x="160" y="105" text-anchor="middle">A</text>
  <text x="200" y="105" text-anchor="middle">B</text>
  <text x="240" y="105" text-anchor="middle">A</text>
  <text x="280" y="105" text-anchor="middle">B</text>
  <text x="320" y="105" text-anchor="middle">C</text>
  
  <!-- Pointers -->
  <path d="M 120 130 L 120 115" class="pointer" />
  <text x="120" y="145" text-anchor="middle" class="label">start</text>
  <path d="M 120 130 L 120 115" class="pointer" />
  <text x="120" y="145" text-anchor="middle" class="label">end</text>
  
  <text x="400" y="90" class="label">maxCount = 1 (char 'A')</text>
  <text x="400" y="110" class="label">result = 1</text>
  
  <!-- Step 2: Expand Window -->
  <rect x="50" y="170" width="500" height="100" class="step-box" />
  <text x="60" y="190" class="step-title">Step 2: Expand Window</text>
  
  <rect x="100" y="200" width="40" height="40" class="window-box" />
  <rect x="140" y="200" width="40" height="40" class="window-box" />
  <rect x="180" y="200" width="40" height="40" class="array-box" />
  <rect x="220" y="200" width="40" height="40" class="array-box" />
  <rect x="260" y="200" width="40" height="40" class="array-box" />
  <rect x="300" y="200" width="40" height="40" class="array-box" />
  
  <text x="120" y="225" text-anchor="middle">A</text>
  <text x="160" y="225" text-anchor="middle">A</text>
  <text x="200" y="225" text-anchor="middle">B</text>
  <text x="240" y="225" text-anchor="middle">A</text>
  <text x="280" y="225" text-anchor="middle">B</text>
  <text x="320" y="225" text-anchor="middle">C</text>
  
  <!-- Pointers -->
  <path d="M 120 250 L 120 235" class="pointer" />
  <text x="120" y="265" text-anchor="middle" class="label">start</text>
  <path d="M 160 250 L 160 235" class="pointer" />
  <text x="160" y="265" text-anchor="middle" class="label">end</text>
  
  <text x="400" y="210" class="label">maxCount = 2 (char 'A')</text>
  <text x="400" y="230" class="label">result = 2</text>
  
  <!-- Step 3: Expand Window with Replacement -->
  <rect x="50" y="290" width="500" height="100" class="step-box" />
  <text x="60" y="310" class="step-title">Step 3: Expand Window with Replacement</text>
  
  <rect x="100" y="320" width="40" height="40" class="window-box" />
  <rect x="140" y="320" width="40" height="40" class="window-box" />
  <rect x="180" y="320" width="40" height="40" class="window-box" />
  <rect x="220" y="320" width="40" height="40" class="array-box" />
  <rect x="260" y="320" width="40" height="40" class="array-box" />
  <rect x="300" y="320" width="40" height="40" class="array-box" />
  
  <text x="120" y="345" text-anchor="middle">A</text>
  <text x="160" y="345" text-anchor="middle">A</text>
  <text x="200" y="345" text-anchor="middle">B</text>
  <text x="240" y="345" text-anchor="middle">A</text>
  <text x="280" y="345" text-anchor="middle">B</text>
  <text x="320" y="345" text-anchor="middle">C</text>
  
  <!-- Pointers -->
  <path d="M 120 370 L 120 355" class="pointer" />
  <text x="120" y="385" text-anchor="middle" class="label">start</text>
  <path d="M 200 370 L 200 355" class="pointer" />
  <text x="200" y="385" text-anchor="middle" class="label">end</text>
  
  <text x="400" y="330" class="label">maxCount = 2 (char 'A')</text>
  <text x="400" y="350" class="label">replacements = 1 (B → A) ≤ K</text>
  <text x="400" y="370" class="label">result = 3</text>
  
  <!-- Step 4: Shrink Window -->
  <rect x="50" y="410" width="500" height="100" class="step-box" />
  <text x="60" y="430" class="step-title">Step 4: Expand and Shrink (Exceed K Replacements)</text>
  
  <rect x="100" y="440" width="40" height="40" class="array-box" />
  <rect x="140" y="440" width="40" height="40" class="window-box" />
  <rect x="180" y="440" width="40" height="40" class="window-box" />
  <rect x="220" y="440" width="40" height="40" class="window-box" />
  <rect x="260" y="440" width="40" height="40" class="array-box" />
  <rect x="300" y="440" width="40" height="40" class="array-box" />
  
  <text x="120" y="465" text-anchor="middle">A</text>
  <text x="160" y="465" text-anchor="middle">A</text>
  <text x="200" y="465" text-anchor="middle">B</text>
  <text x="240" y="465" text-anchor="middle">A</text>
  <text x="280" y="465" text-anchor="middle">B</text>
  <text x="320" y="465" text-anchor="middle">C</text>
  
  <!-- Pointers -->
  <path d="M 160 490 L 160 475" class="pointer" />
  <text x="160" y="505" text-anchor="middle" class="label">start</text>
  <path d="M 240 490 L 240 475" class="pointer" />
  <text x="240" y="505" text-anchor="middle" class="label">end</text>
  
  <text x="400" y="440" class="label">maxCount = 2 (char 'A')</text>
  <text x="400" y="460" class="label">replacements = 1 (B → A) ≤ K</text>
  <text x="400" y="480" class="label">result = max(3, 3) = 3</text>
  
  <!-- Code Box -->
  <rect x="50" y="530" width="500" height="60" class="code-box" />
  <text x="60" y="545" class="code">def longest_repeating_character_replacement(s, k):</text>
  <text x="60" y="560" class="code">    window_start = 0</text>
  <text x="60" y="575" class="code">    max_length = 0</text>
  <text x="60" y="590" class="code">    max_count = 0  # Count of the most frequent character in the window</text>
</svg>
