<svg width="600" height="200" xmlns="http://www.w3.org/2000/svg">
  <!-- Background -->
  <rect width="600" height="200" fill="#f8f9fa" />
  
  <!-- Array elements -->
  <g transform="translate(50, 80)">
    <!-- Array boxes -->
    <rect x="0" y="0" width="50" height="50" fill="#e9ecef" stroke="#495057" stroke-width="2" />
    <rect x="50" y="0" width="50" height="50" fill="#e9ecef" stroke="#495057" stroke-width="2" />
    <rect x="100" y="0" width="50" height="50" fill="#e9ecef" stroke="#495057" stroke-width="2" />
    <rect x="150" y="0" width="50" height="50" fill="#e9ecef" stroke="#495057" stroke-width="2" />
    <rect x="200" y="0" width="50" height="50" fill="#e9ecef" stroke="#495057" stroke-width="2" />
    <rect x="250" y="0" width="50" height="50" fill="#e9ecef" stroke="#495057" stroke-width="2" />
    <rect x="300" y="0" width="50" height="50" fill="#e9ecef" stroke="#495057" stroke-width="2" />
    <rect x="350" y="0" width="50" height="50" fill="#e9ecef" stroke="#495057" stroke-width="2" />
    <rect x="400" y="0" width="50" height="50" fill="#e9ecef" stroke="#495057" stroke-width="2" />
    <rect x="450" y="0" width="50" height="50" fill="#e9ecef" stroke="#495057" stroke-width="2" />
    
    <!-- Array values -->
    <text x="25" y="30" font-family="Arial" font-size="16" text-anchor="middle">5</text>
    <text x="75" y="30" font-family="Arial" font-size="16" text-anchor="middle">2</text>
    <text x="125" y="30" font-family="Arial" font-size="16" text-anchor="middle">7</text>
    <text x="175" y="30" font-family="Arial" font-size="16" text-anchor="middle">1</text>
    <text x="225" y="30" font-family="Arial" font-size="16" text-anchor="middle">9</text>
    <text x="275" y="30" font-family="Arial" font-size="16" text-anchor="middle">3</text>
    <text x="325" y="30" font-family="Arial" font-size="16" text-anchor="middle">6</text>
    <text x="375" y="30" font-family="Arial" font-size="16" text-anchor="middle">4</text>
    <text x="425" y="30" font-family="Arial" font-size="16" text-anchor="middle">8</text>
    <text x="475" y="30" font-family="Arial" font-size="16" text-anchor="middle">2</text>
    
    <!-- Array indices -->
    <text x="25" y="-10" font-family="Arial" font-size="12" text-anchor="middle">0</text>
    <text x="75" y="-10" font-family="Arial" font-size="12" text-anchor="middle">1</text>
    <text x="125" y="-10" font-family="Arial" font-size="12" text-anchor="middle">2</text>
    <text x="175" y="-10" font-family="Arial" font-size="12" text-anchor="middle">3</text>
    <text x="225" y="-10" font-family="Arial" font-size="12" text-anchor="middle">4</text>
    <text x="275" y="-10" font-family="Arial" font-size="12" text-anchor="middle">5</text>
    <text x="325" y="-10" font-family="Arial" font-size="12" text-anchor="middle">6</text>
    <text x="375" y="-10" font-family="Arial" font-size="12" text-anchor="middle">7</text>
    <text x="425" y="-10" font-family="Arial" font-size="12" text-anchor="middle">8</text>
    <text x="475" y="-10" font-family="Arial" font-size="12" text-anchor="middle">9</text>
  </g>
  
  <!-- Window 1 (size 2) -->
  <rect x="50" y="70" width="100" height="70" fill="none" stroke="#0d6efd" stroke-width="3" rx="5" ry="5" />
  <text x="100" y="160" font-family="Arial" font-size="14" fill="#0d6efd" text-anchor="middle">Window 1 (Size 2)</text>
  
  <!-- Window 2 (size 3) -->
  <rect x="150" y="70" width="150" height="70" fill="none" stroke="#20c997" stroke-width="3" rx="5" ry="5" stroke-dasharray="5,5" />
  <text x="225" y="180" font-family="Arial" font-size="14" fill="#20c997" text-anchor="middle">Window 2 (Size 3)</text>
  
  <!-- Window 3 (size 4) -->
  <rect x="300" y="70" width="200" height="70" fill="none" stroke="#dc3545" stroke-width="3" rx="5" ry="5" stroke-dasharray="10,5" />
  <text x="400" y="160" font-family="Arial" font-size="14" fill="#dc3545" text-anchor="middle">Window 3 (Size 4)</text>
  
  <!-- Title -->
  <text x="300" y="30" font-family="Arial" font-weight="bold" font-size="20" text-anchor="middle">Variable Size Sliding Window</text>
</svg>
